%TF.GenerationSoftware,KiCad,Pcbnew,10.0.4-10.0.4~ubuntu22.04.1*%
%TF.CreationDate,2026-07-14T11:20:18-04:00*%
%TF.ProjectId,board,626f6172-642e-46b6-9963-61645f706362,rev?*%
%TF.SameCoordinates,Original*%
%TF.FileFunction,Drillmap*%
%TF.FilePolarity,Positive*%
%FSLAX45Y45*%
G04 Gerber Fmt 4.5, Leading zero omitted, Abs format (unit mm)*
G04 Created by KiCad (PCBNEW 10.0.4-10.0.4~ubuntu22.04.1) date 2026-07-14 11:20:18*
%MOMM*%
%LPD*%
G01*
G04 APERTURE LIST*
%ADD10C,0.050000*%
%ADD11C,0.200000*%
G04 APERTURE END LIST*
D10*
X0Y0D02*
X30500000Y0D01*
X30500000Y-24400000D01*
X0Y-24400000D01*
X0Y0D01*
D11*
X258277Y-24713984D02*
X258277Y-24513984D01*
X258277Y-24513984D02*
X305896Y-24513984D01*
X305896Y-24513984D02*
X334467Y-24523508D01*
X334467Y-24523508D02*
X353515Y-24542555D01*
X353515Y-24542555D02*
X363039Y-24561603D01*
X363039Y-24561603D02*
X372562Y-24599698D01*
X372562Y-24599698D02*
X372562Y-24628269D01*
X372562Y-24628269D02*
X363039Y-24666365D01*
X363039Y-24666365D02*
X353515Y-24685412D01*
X353515Y-24685412D02*
X334467Y-24704460D01*
X334467Y-24704460D02*
X305896Y-24713984D01*
X305896Y-24713984D02*
X258277Y-24713984D01*
X458277Y-24713984D02*
X458277Y-24580650D01*
X458277Y-24618746D02*
X467801Y-24599698D01*
X467801Y-24599698D02*
X477324Y-24590174D01*
X477324Y-24590174D02*
X496372Y-24580650D01*
X496372Y-24580650D02*
X515420Y-24580650D01*
X582086Y-24713984D02*
X582086Y-24580650D01*
X582086Y-24513984D02*
X572563Y-24523508D01*
X572563Y-24523508D02*
X582086Y-24533031D01*
X582086Y-24533031D02*
X591610Y-24523508D01*
X591610Y-24523508D02*
X582086Y-24513984D01*
X582086Y-24513984D02*
X582086Y-24533031D01*
X705896Y-24713984D02*
X686848Y-24704460D01*
X686848Y-24704460D02*
X677324Y-24685412D01*
X677324Y-24685412D02*
X677324Y-24513984D01*
X810658Y-24713984D02*
X791610Y-24704460D01*
X791610Y-24704460D02*
X782086Y-24685412D01*
X782086Y-24685412D02*
X782086Y-24513984D01*
X1039229Y-24713984D02*
X1039229Y-24513984D01*
X1039229Y-24513984D02*
X1105896Y-24656841D01*
X1105896Y-24656841D02*
X1172563Y-24513984D01*
X1172563Y-24513984D02*
X1172563Y-24713984D01*
X1353515Y-24713984D02*
X1353515Y-24609222D01*
X1353515Y-24609222D02*
X1343991Y-24590174D01*
X1343991Y-24590174D02*
X1324944Y-24580650D01*
X1324944Y-24580650D02*
X1286848Y-24580650D01*
X1286848Y-24580650D02*
X1267801Y-24590174D01*
X1353515Y-24704460D02*
X1334467Y-24713984D01*
X1334467Y-24713984D02*
X1286848Y-24713984D01*
X1286848Y-24713984D02*
X1267801Y-24704460D01*
X1267801Y-24704460D02*
X1258277Y-24685412D01*
X1258277Y-24685412D02*
X1258277Y-24666365D01*
X1258277Y-24666365D02*
X1267801Y-24647317D01*
X1267801Y-24647317D02*
X1286848Y-24637793D01*
X1286848Y-24637793D02*
X1334467Y-24637793D01*
X1334467Y-24637793D02*
X1353515Y-24628269D01*
X1448753Y-24580650D02*
X1448753Y-24780650D01*
X1448753Y-24590174D02*
X1467801Y-24580650D01*
X1467801Y-24580650D02*
X1505896Y-24580650D01*
X1505896Y-24580650D02*
X1524943Y-24590174D01*
X1524943Y-24590174D02*
X1534467Y-24599698D01*
X1534467Y-24599698D02*
X1543991Y-24618746D01*
X1543991Y-24618746D02*
X1543991Y-24675888D01*
X1543991Y-24675888D02*
X1534467Y-24694936D01*
X1534467Y-24694936D02*
X1524943Y-24704460D01*
X1524943Y-24704460D02*
X1505896Y-24713984D01*
X1505896Y-24713984D02*
X1467801Y-24713984D01*
X1467801Y-24713984D02*
X1448753Y-24704460D01*
X1629705Y-24694936D02*
X1639229Y-24704460D01*
X1639229Y-24704460D02*
X1629705Y-24713984D01*
X1629705Y-24713984D02*
X1620182Y-24704460D01*
X1620182Y-24704460D02*
X1629705Y-24694936D01*
X1629705Y-24694936D02*
X1629705Y-24713984D01*
X1629705Y-24590174D02*
X1639229Y-24599698D01*
X1639229Y-24599698D02*
X1629705Y-24609222D01*
X1629705Y-24609222D02*
X1620182Y-24599698D01*
X1620182Y-24599698D02*
X1629705Y-24590174D01*
X1629705Y-24590174D02*
X1629705Y-24609222D01*
M02*
