0
SECTION
2
HEADER
9
$ACADVER
1
AC1009
0
ENDSEC
0
SECTION
2
TABLES
0
TABLE
2
LAYER
70
5
0
LAYER
2
GEOMETRY
70
0
62
7
6
CONTINUOUS
0
LAYER
2
DIMENSIONS
70
0
62
7
6
CONTINUOUS
0
LAYER
2
ANNOTATIONS
70
0
62
7
6
CONTINUOUS
0
LAYER
2
TABLES
70
0
62
7
6
CONTINUOUS
0
LAYER
2
SHEET
70
0
62
7
6
CONTINUOUS
0
ENDTAB
0
ENDSEC
0
SECTION
2
ENTITIES
0
LINE
8
SHEET
10
10.0000
20
10.0000
30
0.0
11
421.8000
21
10.0000
31
0.0
0
LINE
8
SHEET
10
421.8000
20
10.0000
30
0.0
11
421.8000
21
269.4000
31
0.0
0
LINE
8
SHEET
10
421.8000
20
269.4000
30
0.0
11
10.0000
21
269.4000
31
0.0
0
LINE
8
SHEET
10
10.0000
20
269.4000
30
0.0
11
10.0000
21
10.0000
31
0.0
0
LINE
8
SHEET
10
341.8000
20
241.4000
30
0.0
11
421.8000
21
241.4000
31
0.0
0
LINE
8
SHEET
10
421.8000
20
241.4000
30
0.0
11
421.8000
21
269.4000
31
0.0
0
LINE
8
SHEET
10
421.8000
20
269.4000
30
0.0
11
341.8000
21
269.4000
31
0.0
0
LINE
8
SHEET
10
341.8000
20
269.4000
30
0.0
11
341.8000
21
241.4000
31
0.0
0
TEXT
8
SHEET
10
343.8000
20
246.4000
30
0.0
40
3.5000
1
PavilionFrame Plan
0
TEXT
8
SHEET
10
343.8000
20
251.4000
30
0.0
40
3.5000
1
PLN-PavilionFrame
0
TEXT
8
SHEET
10
343.8000
20
256.4000
30
0.0
40
3.5000
1
rev A
0
TEXT
8
SHEET
10
343.8000
20
261.4000
30
0.0
40
3.5000
1
scale NTS
0
TEXT
8
SHEET
10
343.8000
20
266.4000
30
0.0
40
3.5000
1
PavilionFrame
0
POINT
8
GEOMETRY
10
31.3769
20
184.7077
30
0.0
0
POINT
8
GEOMETRY
10
154.3923
20
184.7077
30
0.0
0
POINT
8
GEOMETRY
10
277.4077
20
184.7077
30
0.0
0
POINT
8
GEOMETRY
10
400.4231
20
184.7077
30
0.0
0
POINT
8
GEOMETRY
10
31.3769
20
61.6923
30
0.0
0
POINT
8
GEOMETRY
10
154.3923
20
61.6923
30
0.0
0
LINE
8
GEOMETRY
10
31.3769
20
184.7077
30
0.0
11
277.4077
21
184.7077
31
0.0
0
LINE
8
GEOMETRY
10
31.3769
20
184.7077
30
0.0
11
277.4077
21
184.7077
31
0.0
0
LINE
8
GEOMETRY
10
154.3923
20
184.7077
30
0.0
11
31.3769
21
184.7077
31
0.0
0
LINE
8
GEOMETRY
10
400.4231
20
184.7077
30
0.0
11
277.4077
21
184.7077
31
0.0
0
LINE
8
GEOMETRY
10
31.3769
20
184.7077
30
0.0
11
277.4077
21
184.7077
31
0.0
0
TEXT
8
DIMENSIONS
10
154.3923
20
184.7077
30
0.0
40
3.0000
1
member.length:G1=3.0000m
0
TEXT
8
DIMENSIONS
10
154.3923
20
184.7077
30
0.0
40
3.0000
1
member.length:G2=3.0000m
0
TEXT
8
DIMENSIONS
10
92.8846
20
184.7077
30
0.0
40
3.0000
1
member.length:P_A=3.0000m
0
TEXT
8
DIMENSIONS
10
338.9154
20
184.7077
30
0.0
40
3.0000
1
member.length:P_B=3.0000m
0
TEXT
8
DIMENSIONS
10
154.3923
20
184.7077
30
0.0
40
3.0000
1
member.length:Purlin=3.0000m
0
TEXT
8
TABLES
10
10.0000
20
241.4000
30
0.0
40
5.0000
1
Member Schedule
0
TEXT
8
TABLES
10
10.0000
20
246.4000
30
0.0
40
5.0000
1
G1|beam|3.000 m|sawn_38x286|spf_no1
0
TEXT
8
TABLES
10
10.0000
20
251.4000
30
0.0
40
5.0000
1
G2|beam|3.000 m|sawn_38x235|spf_no1
0
TEXT
8
TABLES
10
10.0000
20
256.4000
30
0.0
40
5.0000
1
P_A|column|3.000 m|sawn_150x150|sp_no2_treated
0
TEXT
8
TABLES
10
10.0000
20
261.4000
30
0.0
40
5.0000
1
P_B|column|3.000 m|sawn_150x150|sp_no2_treated
0
TEXT
8
TABLES
10
10.0000
20
266.4000
30
0.0
40
5.0000
1
Purlin|slab|3.000 m|sawn_50x100|spf_no2
0
ENDSEC
0
EOF
